<svg width="77" height="87" viewBox="0 0 77 87" fill="none" xmlns="http://www.w3.org/2000/svg">
<path d="M18.3287 26.5705C18.4642 26.8819 18.767 27.177 19.0559 27.1346C19.5143 27.0648 20.1388 26.335 20.7867 25.7608C23.1049 23.7541 26.0424 24.6488 26.8342 26.6392C27.6461 28.6681 25.9143 30.4908 26.0932 31.8373C26.1685 32.4235 26.6282 32.8979 27.2344 33.0149C27.8407 33.1319 28.4572 32.8652 28.7649 32.3529C29.7335 30.7647 27.1475 27.6259 28.9163 24.9965C29.8757 23.6004 31.6364 22.9128 33.3453 23.2669C35.3878 23.7805 36.7349 25.6374 36.5209 27.6441C36.4151 28.47 36.016 29.3181 36.1579 29.7781C36.2952 30.0868 36.6295 30.2717 36.9782 30.232C37.4167 30.1527 37.7716 29.8454 37.8971 29.4364C38.2623 28.3315 37.3583 26.6534 38.1786 25.0248C39.0281 23.5368 40.8525 22.82 42.5526 23.3063C46.6343 24.3172 47.2028 29.5274 48.7567 30.0136C49.0309 30.0985 49.124 30.0318 49.1801 29.9904C49.5986 29.4982 49.7944 28.867 49.7242 28.2365C49.6469 27.3044 48.5429 24.7994 50.534 23.6662C51.9609 22.8635 53.444 23.6894 56.1062 24.3738C56.0215 24.112 55.8342 23.7137 55.6743 23.3548C55.3325 22.6243 54.8644 21.9538 54.2897 21.3714C52.4774 19.4225 50.2784 17.8361 47.8199 16.7041C47.4645 17.1907 47.0615 17.6439 46.6163 18.0577C47.0727 18.2159 47.3561 18.6524 47.3014 19.1131C47.2468 19.5739 46.8685 19.9388 46.3866 19.9956C40.9665 20.6633 35.4782 20.65 30.0617 19.9562C29.6884 19.8977 29.3762 19.6534 29.2426 19.3155C29.109 18.9775 29.1744 18.5972 29.4141 18.3177C29.6538 18.0383 30.0314 17.9022 30.4046 17.9607C31.261 18.0921 30.5655 18.1366 29.1873 16.3372C25.819 17.6513 21.5658 20.028 19.4783 22.8827C18.8188 23.7804 17.8757 25.5606 18.3287 26.5705Z" fill="#DB3559"/>
<path d="M50.1285 1.23785C47.3763 -0.138993 44.9321 -0.367457 42.8658 0.553474C40.7995 1.4744 39.2614 3.48508 38.2558 6.50464C38.2315 6.45814 38.1997 6.4167 38.1796 6.36918C37.9365 5.80336 37.5334 5.31332 37.0152 4.95392C35.9997 4.23533 34.697 3.99722 33.4754 4.30695C32.686 4.53392 31.9617 4.93095 31.3583 5.46746C28.8019 7.66415 28.4335 11.4025 30.4681 14.5494C31.6486 16.3524 33.4461 17.7096 35.5554 18.3908C37.8186 18.4826 40.0853 18.4606 42.346 18.3251C44.102 17.6771 45.5684 16.4678 46.4956 14.9032C47.2309 13.6113 47.4762 12.1164 47.19 10.6716C47.0548 9.88781 46.7328 9.1442 46.2489 8.49814C45.4783 7.5422 44.2989 6.96734 43.0362 6.93226C42.4066 6.90481 41.7819 7.05078 41.2367 7.35279C40.8958 7.54888 40.5015 7.64355 40.104 7.62472C40.9191 4.86597 42.147 3.106 43.7656 2.38523C45.2041 1.74431 47.0153 1.96065 49.1536 3.02917C49.491 3.21953 49.9109 3.21629 50.2451 3.02074C50.5792 2.82519 50.7729 2.46933 50.7485 2.0958C50.7241 1.72226 50.4855 1.39218 50.1285 1.23785ZM34.1963 7.89766C33.9723 7.89769 33.7583 7.98581 33.6045 8.14129C33.3407 8.41397 33.1437 8.73923 33.0276 9.09356C32.823 9.61669 32.2131 9.88237 31.6653 9.68696C31.1175 9.49155 30.8393 8.90906 31.0439 8.38593C31.2654 7.74646 31.6381 7.16429 32.1332 6.68458C32.7566 6.0869 33.6338 5.79711 34.5107 5.89911C34.8904 5.94705 35.2134 6.18713 35.3552 6.5269C35.4971 6.86667 35.4357 7.25312 35.1947 7.53741C34.9536 7.82169 34.5706 7.95947 34.1931 7.89766H34.1963Z" fill="#DB3559"/>
<path d="M44.4387 40.7754C44.3403 40.6743 44.245 40.5732 44.1529 40.4721C42.8718 42.7822 40.3581 44.2265 37.6208 44.2252C34.8835 44.2239 32.3713 42.7773 31.0925 40.4661C31.0218 40.5766 30.9372 40.6784 30.8406 40.7693C27.9052 43.7212 22.8835 43.8748 19.1309 42.5162C20.7255 47.8996 23.2771 52.9812 26.6741 57.5392C27.3908 57.7535 30.1345 58.3772 37.6375 58.3772C45.0971 58.3772 47.8515 57.7616 48.603 57.5392C51.9983 52.9821 54.5487 47.9019 56.1431 42.5202C52.3895 43.8799 47.3688 43.7242 44.4387 40.7754ZM30.8152 56.1856C30.5816 56.3344 30.2957 56.3885 30.0203 56.336C29.745 56.2835 29.5028 56.1286 29.347 55.9055C27.1759 52.796 25.0778 46.8186 24.9889 46.5658C24.8694 46.2227 24.9507 45.8448 25.2021 45.5744C25.4534 45.304 25.8368 45.1823 26.2077 45.255C26.5786 45.3277 26.8807 45.5838 27.0002 45.9269C27.0203 45.9866 29.0972 51.9004 31.1105 54.7834C31.2662 55.0067 31.3225 55.28 31.2671 55.543C31.2117 55.8059 31.0491 56.0371 30.8152 56.1856ZM35.5204 54.3336C35.5204 54.8919 35.0465 55.3445 34.4619 55.3445C33.8773 55.3445 33.4033 54.8919 33.4033 54.3336V47.2573C33.4033 46.699 33.8773 46.2464 34.4619 46.2464C35.0465 46.2464 35.5204 46.699 35.5204 47.2573V54.3336ZM41.8717 54.3336C41.8717 54.8919 41.3978 55.3445 40.8132 55.3445C40.2286 55.3445 39.7546 54.8919 39.7546 54.3336V47.2573C39.7546 46.699 40.2286 46.2464 40.8132 46.2464C41.3978 46.2464 41.8717 46.699 41.8717 47.2573V54.3336ZM50.2861 46.5658C50.1972 46.8186 48.0992 52.796 45.9281 55.9055C45.7182 56.206 45.3564 56.3768 44.9789 56.3534C44.6015 56.3301 44.2658 56.1162 44.0982 55.7924C43.9307 55.4685 43.9568 55.0839 44.1667 54.7834C46.1779 51.8973 48.2569 45.9886 48.277 45.9269C48.4618 45.3966 49.0617 45.1096 49.6171 45.286C50.1725 45.4625 50.473 46.0354 50.2883 46.5658H50.2861Z" fill="#DB3559"/>
<path d="M59.6249 32.7442C59.03 30.475 58.0487 28.3146 56.7202 26.3492C56.35 26.4283 55.9653 26.422 55.5981 26.331C51.5682 25.302 51.0697 24.4942 51.6487 27.0751C51.7323 27.4079 51.7928 27.7456 51.8297 28.086C51.9637 29.3881 51.466 30.6772 50.479 31.5847C49.2617 32.4945 47.279 32.2681 45.9272 29.9875C44.91 28.2851 44.007 25.7558 42.0106 25.2615C41.2914 25.0457 40.5091 25.3067 40.0872 25.9034C39.6638 26.7526 40.4196 28.5237 39.92 30.036C39.554 31.2116 38.5023 32.0744 37.2302 32.2428C35.8537 32.4005 34.5528 31.6059 34.1255 30.3463C33.9806 29.359 34.081 28.353 34.4187 27.4097C34.5051 26.4226 33.8518 25.5139 32.8563 25.2362C32.0185 25.0865 31.1677 25.4266 30.6915 26.1016C29.5367 27.8201 32.1682 30.7932 30.5941 33.374C29.8297 34.6357 28.3068 35.2903 26.8109 35.0001C25.315 34.7099 24.1803 33.5398 23.992 32.0932C23.7369 30.1543 25.2845 28.4256 24.8568 27.3561C24.6719 26.9762 24.2958 26.7136 23.8607 26.6606C22.1099 26.4261 21.4536 28.8158 19.3947 29.1262C18.6349 29.2338 17.8638 29.0188 17.284 28.5378C14.7815 33.2769 14.229 38.1909 19.3079 40.3997C22.5449 41.7968 27.2407 41.7463 29.5007 39.1665C29.9488 38.661 30.6288 38.3987 31.3188 38.4652C32.0088 38.5317 32.6202 38.9183 32.9537 39.499C33.8188 41.2046 35.6543 42.2639 37.6377 42.2022C39.6207 42.2643 41.4561 41.2059 42.3218 39.5011C42.6552 38.921 43.2661 38.5348 43.9554 38.4681C44.6448 38.4015 45.3243 38.663 45.7727 39.1675C48.0592 41.7675 52.7591 41.7897 55.9697 40.4018C59.3105 38.9491 60.3775 36.1893 59.6249 32.7442Z" fill="#DB3559"/>
<path d="M21.7262 63.4993C20.8608 62.9188 19.5886 61.7493 18.7918 60.876C18.2914 61.6519 16.6015 63.6501 14.666 65.8151C13.8608 65.0953 12.9022 64.3671 11.9296 63.6906C12.9373 62.5634 13.8791 61.4739 14.629 60.5991C17.7011 56.8747 14.5038 53.5013 12.076 53.5522C13.1932 55.2913 12.9171 57.0405 11.6545 58.7769C11.2105 59.3456 10.2366 60.4709 9.03504 61.779C7.73187 60.9681 6.59352 60.3689 5.98056 60.0462C5.81871 60.1913 5.37652 60.7939 5.24855 60.9371C5.86151 61.2597 6.822 62.0218 7.92754 62.9458C5.95437 65.0449 3.70168 67.3126 2.34286 68.5444C3.52269 69.2773 4.52465 70.173 5.68683 71.5018C6.33862 70.0885 8.39638 67.6787 10.5219 65.2652C11.3845 66.1007 12.2472 66.9363 12.9526 67.6957C10.5974 70.2581 8.23273 72.651 7.38009 73.2087C8.32542 73.6997 10.2125 75.2258 10.7739 76.1462C11.5792 74.7414 20.0887 64.6108 21.7262 63.4993Z" fill="#DB3559"/>
<path d="M23.8268 70.8638C24.0263 69.3666 23.1735 68.3031 21.8639 67.8735C19.6663 67.1329 16.7942 68.2232 15.0493 71.9378C13.2942 75.6742 15.0488 78.487 16.9387 79.3748C20.6533 81.1197 23.2289 78.0074 24.2005 75.6001C25.1709 73.1392 23.8331 70.6811 21.5696 70.7581C22.7403 71.6527 22.5549 73.2892 21.708 75.0922C20.8904 76.7764 19.4977 78.2169 18.3349 77.6442C16.8795 76.9605 16.9358 75.3165 17.766 73.267C19.0425 70.1544 21.7355 68.7678 23.8268 70.8638Z" fill="#DB3559"/>
<path d="M31.3499 70.2353C31.7239 69.7785 32.9334 68.6743 34.1753 67.971C32.5743 67.9778 31.7647 67.9669 30.6146 67.8297C31.3461 65.1408 32.0449 62.8137 32.5271 61.9877C31.1696 62.9847 29.5003 63.8373 28.0531 64.4695C27.9931 65.1695 27.7834 66.2048 27.508 67.422C27.3207 67.3796 27.1282 67.3607 26.9122 67.3364C26.3955 67.6624 25.4624 68.6324 24.6693 69.0927C25.398 69.1346 26.2098 69.2444 27.0269 69.3309C26.231 72.5219 25.1751 76.3185 24.6944 78.7688C23.8921 82.9673 28.2831 83.7886 30.0375 81.7987C28.6842 81.6894 27.7937 80.4052 28.0497 78.8391C28.3237 77.3016 29.1584 73.5042 30.0783 69.8737C30.5933 69.9902 31.0327 70.1143 31.3499 70.2353Z" fill="#DB3559"/>
<path d="M45.1937 73.3938C47.4049 72.6154 48.0862 70.1062 47.2279 68.6359C46.2728 67.0105 43.877 67.0645 42.0327 67.8591C39.0663 69.094 36.9314 73.0418 38.0762 78.5719C39.8465 87.2109 47.8242 87.6069 51.537 82.7114C44.8123 85.0847 42.3194 80.4183 41.6248 77.8057C40.7713 74.6348 40.4921 70.6224 42.7397 69.7656C44.4801 69.0842 46.1306 71.2822 45.1937 73.3938Z" fill="#DB3559"/>
<path d="M55.8268 69.2384C54.9728 69.7416 53.6968 70.2979 52.6464 70.6511C53.1784 71.5712 53.8374 73.1428 54.4963 74.7144C54.8479 76.0011 54.7735 77.2117 54.035 77.5598C52.6654 78.2617 51.1602 76.4306 50.6 75.0254C48.7342 70.4454 52.1877 69.3587 53.2533 69.9414C52.9131 68.4403 50.9352 67.627 49.2271 68.6334C47.5314 69.6083 45.7501 72.0082 47.5916 76.2322C49.5865 80.8083 52.4478 80.7653 53.7458 80.1994C55.1538 79.5855 55.6897 78.5927 55.8024 77.47C56.115 78.0669 56.4016 78.5441 56.7158 78.9046C58.5984 81.1209 60.9975 79.2372 61.6935 77.6508C58.5909 78.4013 56.4097 71.2359 55.8268 69.2384Z" fill="#DB3559"/>
<path d="M61.8645 60.3393C61.1415 61.2378 60.3028 61.7662 59.3152 62.4158C60.6325 63.8811 61.8904 66.2614 60.6119 67.9219C63.81 71.8483 69.603 72.918 72.3527 68.0473C69.0104 69.0362 65.4712 68.9474 63.2658 66.6579C63.6774 65.3011 63.3898 62.4399 61.8645 60.3393ZM47.9919 62.879C49.4633 61.8353 50.8125 61.8197 52.0038 63.0162C53.0249 64.0417 60.4731 73.4519 61.8543 75.7937C62.5077 75.0758 63.6194 74.0464 64.6931 73.3885C63.1132 72.3229 57.2497 64.0982 54.4125 61.147C51.8213 58.4598 48.3802 60.5817 47.9919 62.879Z" fill="#DB3559"/>
<path d="M69.6656 62.0158C70.9724 61.365 72.5763 58.1085 69.9313 55.911C67.17 53.6286 65.1076 54.5004 63.7354 56.381C62.4338 58.1646 61.8585 61.518 65.9491 64.5031C71.0091 68.1955 77.1564 64.0059 74.5957 58.7206C74.0246 61.6611 71.0599 64.0137 67.7217 61.6668C65.8323 60.3475 63.8978 58.5198 64.8069 57.1926C65.6258 55.9482 67.2758 56.9443 68.1902 57.8492C69.138 58.7488 69.9732 60.5764 69.6656 62.0158Z" fill="#DB3559"/>
</svg>
